<svg viewBox="0 0 16 16" fill="none" xmlns="http://www.w3.org/2000/svg">
<path d="M1.33325 5.58473C1.33325 5.35119 1.33325 5.23442 1.343 5.13606C1.43699 4.18743 2.18743 3.43699 3.13606 3.343C3.23441 3.33325 3.35749 3.33325 3.60364 3.33325C3.69849 3.33325 3.74591 3.33325 3.78618 3.33081C4.30033 3.29968 4.75055 2.97517 4.94268 2.49725C4.95773 2.45982 4.97179 2.41763 4.99992 2.33325C5.02805 2.24887 5.04211 2.20668 5.05716 2.16925C5.24928 1.69133 5.69951 1.36683 6.21366 1.33569C6.25393 1.33325 6.2984 1.33325 6.38734 1.33325H9.61249C9.70144 1.33325 9.74591 1.33325 9.78618 1.33569C10.3003 1.36683 10.7506 1.69133 10.9427 2.16925C10.9577 2.20668 10.9718 2.24887 10.9999 2.33325C11.028 2.41763 11.0421 2.45982 11.0572 2.49725C11.2493 2.97517 11.6995 3.29968 12.2137 3.33081C12.2539 3.33325 12.3013 3.33325 12.3962 3.33325C12.6423 3.33325 12.7654 3.33325 12.8638 3.343C13.8124 3.43699 14.5629 4.18743 14.6568 5.13606C14.6666 5.23442 14.6666 5.35119 14.6666 5.58473V10.7999C14.6666 11.92 14.6666 12.4801 14.4486 12.9079C14.2569 13.2842 13.9509 13.5902 13.5746 13.7819C13.1467 13.9999 12.5867 13.9999 11.4666 13.9999H4.53325C3.41315 13.9999 2.85309 13.9999 2.42527 13.7819C2.04895 13.5902 1.74299 13.2842 1.55124 12.9079C1.33325 12.4801 1.33325 11.92 1.33325 10.7999V5.58473Z" stroke="currentColor" stroke-width="2" stroke-linecap="round" stroke-linejoin="round"/>
<path d="M7.99992 10.9999C9.47268 10.9999 10.6666 9.80601 10.6666 8.33325C10.6666 6.86049 9.47268 5.66659 7.99992 5.66659C6.52716 5.66659 5.33325 6.86049 5.33325 8.33325C5.33325 9.80601 6.52716 10.9999 7.99992 10.9999Z" stroke="currentColor" stroke-width="2" stroke-linecap="round" stroke-linejoin="round"/>
</svg>
