<svg viewBox="0 0 16 16" fill="none" xmlns="http://www.w3.org/2000/svg">
<mask id="path-1-inside-1_2_285" fill="red">
<path d="M15.4 8C15.7314 8 16.0023 7.73099 15.9775 7.40055C15.8745 6.02943 15.4194 4.70431 14.6518 3.55544C13.7727 2.23984 12.5233 1.21446 11.0615 0.608964C9.59966 0.00346267 7.99113 -0.154964 6.43928 0.153718C4.88743 0.4624 3.46197 1.22433 2.34315 2.34315C1.22433 3.46197 0.4624 4.88743 0.153718 6.43928C-0.154964 7.99113 0.00346269 9.59966 0.608964 11.0615C1.21446 12.5233 2.23985 13.7727 3.55544 14.6518C4.70431 15.4194 6.02943 15.8745 7.40055 15.9775C7.73099 16.0023 8 15.7314 8 15.4C8 15.0686 7.73084 14.8027 7.40076 14.7735C6.26726 14.6733 5.17358 14.2897 4.22212 13.654C3.10387 12.9068 2.2323 11.8448 1.71762 10.6022C1.20294 9.35971 1.06828 7.99246 1.33066 6.67339C1.59304 5.35431 2.24068 4.14267 3.19167 3.19167C4.14267 2.24068 5.35431 1.59304 6.67339 1.33066C7.99246 1.06828 9.35971 1.20294 10.6022 1.71762C11.8448 2.23229 12.9068 3.10387 13.654 4.22212C14.2897 5.17358 14.6733 6.26726 14.7735 7.40076C14.8027 7.73084 15.0686 8 15.4 8Z"/>
</mask>
<path d="M15.4 8C15.7314 8 16.0023 7.73099 15.9775 7.40055C15.8745 6.02943 15.4194 4.70431 14.6518 3.55544C13.7727 2.23984 12.5233 1.21446 11.0615 0.608964C9.59966 0.00346267 7.99113 -0.154964 6.43928 0.153718C4.88743 0.4624 3.46197 1.22433 2.34315 2.34315C1.22433 3.46197 0.4624 4.88743 0.153718 6.43928C-0.154964 7.99113 0.00346269 9.59966 0.608964 11.0615C1.21446 12.5233 2.23985 13.7727 3.55544 14.6518C4.70431 15.4194 6.02943 15.8745 7.40055 15.9775C7.73099 16.0023 8 15.7314 8 15.4C8 15.0686 7.73084 14.8027 7.40076 14.7735C6.26726 14.6733 5.17358 14.2897 4.22212 13.654C3.10387 12.9068 2.2323 11.8448 1.71762 10.6022C1.20294 9.35971 1.06828 7.99246 1.33066 6.67339C1.59304 5.35431 2.24068 4.14267 3.19167 3.19167C4.14267 2.24068 5.35431 1.59304 6.67339 1.33066C7.99246 1.06828 9.35971 1.20294 10.6022 1.71762C11.8448 2.23229 12.9068 3.10387 13.654 4.22212C14.2897 5.17358 14.6733 6.26726 14.7735 7.40076C14.8027 7.73084 15.0686 8 15.4 8Z" stroke="currentColor" stroke-width="2" mask="url(#path-1-inside-1_2_285)"/>
</svg>
